<svg xmlns="http://www.w3.org/2000/svg"><symbol id="mecha-stilts" viewBox="0 0 256 256"><path d="M128.5 5.4l107 61.8v123.6l-107 61.8-107-61.8V67.2l107-61.8z"/><path fill="#ff9500" d="M69.9 174.7a2 2 0 0 1-2.1-2.1v-24.5H41a2.1 2.1 0 0 1 0-4.1h15.3v-13.2a1.9 1.9 0 0 1 2-2h7.9a64.4 64.4 0 0 1 62.1-49.3c.2-.2.4-.2.8 0 30 .2 55 21.3 61.7 49.3h7.9a1.9 1.9 0 0 1 2 2V144H216a2.1 2.1 0 0 1 0 4.1h-26.8v24.5a2 2 0 0 1-2.1 2.1zm-9.6-41.8V144h136.4v-11.1zm64.1-49.2c-25.9 1.7-47.6 20.5-53.9 45.1h21.7zm-52.5 64.4v22.5h54.6v-22.5zm54.6-60.3l-29.3 41h29.3zm4-4.3v45.3h56a60.4 60.4 0 0 0-56-45.3zm0 64.6v22.5h9.2v-22.5zm13.2 0v22.5h41.4v-22.5z"/></symbol><symbol id="super-domes" viewBox="0 0 256 256"><path d="M134.5 7.9l107 61.8v123.6l-107 61.8-107-61.8V69.7l107-61.8z"/><path fill="#ff9500" d="M72.4 177.2a2.2 2.2 0 0 1-2-2.1 2.2 2.2 0 0 1 2-2h10.2v-12.8H72.4a1.9 1.9 0 0 1-2-2v-40a1.9 1.9 0 0 1 2-2h13.4c1-28.8 22.5-44.7 48.7-44.7s47.7 15.9 48.7 44.7h13.4a1.9 1.9 0 0 1 2 2v40a1.9 1.9 0 0 1-2 2h-10.2v12.8h10.2a2.2 2.2 0 0 1 2 2 2.2 2.2 0 0 1-2 2.1zm2-56.9v36h120.2v-36zm12.2 40v12.8h13v-12.8zm3.3-44h89.2c-1-26.2-20.9-40.6-44.6-40.6s-43.6 14.4-44.6 40.6zm13.8 44v12.8h20.2v-12.8zm24.3 0v12.8h13v-12.8zm55-13.8h-49.5a2 2 0 0 1 0-4H183a2 2 0 0 1 0 4zm-38 13.8v12.8h20.3v-12.8zm24.4 0v12.8h13v-12.8z"/></symbol><symbol id="space-bubbles" viewBox="0 0 256 256"><path d="M128 8.4l107 61.8v123.6l-107 61.8-107-61.8V70.2L128 8.4z"/><path fill="#ff9500" d="M67.5 182.1l-4.6-6.7a2.1 2.1 0 0 1 .2-2.4l16.8-19.9h-8.3a1.9 1.9 0 0 1-2-2v-14.6a1.9 1.9 0 0 1 2-2.1h11.8a53.2 53.2 0 0 1-2.3-15.4 48 48 0 0 1 96 0 49.9 49.9 0 0 1-2.2 15.4h11.7a1.9 1.9 0 0 1 2.1 2.1v14.6a1.9 1.9 0 0 1-2.1 2h-10.3l16.6 19.9a2.1 2.1 0 0 1 0 2.4l-4.6 6.7a2.3 2.3 0 0 1-2.7.6l-9.7-5h-96l-9.7 5a2.3 2.3 0 0 1-2.7-.6zm30.9-29H85l-17.9 21.1 2.9 4.1 34.3-18.1zm-24.8-14.6V149h111v-10.5zm14-4.1h83A49.1 49.1 0 0 0 173 119a43.9 43.9 0 0 0-87.8 0c0 5.3.4 10.8 2.4 15.4zm19.5 29l-19.3 10.2h27.6zm-3.5-10.3l17.1 20.5h14.6l17-20.5zm45.3 10.3l-8.3 10.2h27.6zm22.1-10.3h-13.4l-6.1 7.1 34.5 18.1 2.9-3.9z"/></symbol><symbol id="super-domes" viewBox="0 0 256 256"><path d="M134.5 7.9l107 61.8v123.6l-107 61.8-107-61.8V69.7l107-61.8z"/><path fill="#ff9500" d="M72.4 177.2a2.2 2.2 0 0 1-2-2.1 2.2 2.2 0 0 1 2-2h10.2v-12.8H72.4a1.9 1.9 0 0 1-2-2v-40a1.9 1.9 0 0 1 2-2h13.4c1-28.8 22.5-44.7 48.7-44.7s47.7 15.9 48.7 44.7h13.4a1.9 1.9 0 0 1 2 2v40a1.9 1.9 0 0 1-2 2h-10.2v12.8h10.2a2.2 2.2 0 0 1 2 2 2.2 2.2 0 0 1-2 2.1zm2-56.9v36h120.2v-36zm12.2 40v12.8h13v-12.8zm3.3-44h89.2c-1-26.2-20.9-40.6-44.6-40.6s-43.6 14.4-44.6 40.6zm13.8 44v12.8h20.2v-12.8zm24.3 0v12.8h13v-12.8zm55-13.8h-49.5a2 2 0 0 1 0-4H183a2 2 0 0 1 0 4zm-38 13.8v12.8h20.3v-12.8zm24.4 0v12.8h13v-12.8z"/></symbol><symbol id="mecha-stilts" viewBox="0 0 256 256"><path d="M128.5 5.4l107 61.8v123.6l-107 61.8-107-61.8V67.2l107-61.8z"/><path fill="#ff9500" d="M69.9 174.7a2 2 0 0 1-2.1-2.1v-24.5H41a2.1 2.1 0 0 1 0-4.1h15.3v-13.2a1.9 1.9 0 0 1 2-2h7.9a64.4 64.4 0 0 1 62.1-49.3c.2-.2.4-.2.8 0 30 .2 55 21.3 61.7 49.3h7.9a1.9 1.9 0 0 1 2 2V144H216a2.1 2.1 0 0 1 0 4.1h-26.8v24.5a2 2 0 0 1-2.1 2.1zm-9.6-41.8V144h136.4v-11.1zm64.1-49.2c-25.9 1.7-47.6 20.5-53.9 45.1h21.7zm-52.5 64.4v22.5h54.6v-22.5zm54.6-60.3l-29.3 41h29.3zm4-4.3v45.3h56a60.4 60.4 0 0 0-56-45.3zm0 64.6v22.5h9.2v-22.5zm13.2 0v22.5h41.4v-22.5z"/></symbol><symbol id="space-bubbles" viewBox="0 0 256 256"><path d="M128 8.4l107 61.8v123.6l-107 61.8-107-61.8V70.2L128 8.4z"/><path fill="#ff9500" d="M67.5 182.1l-4.6-6.7a2.1 2.1 0 0 1 .2-2.4l16.8-19.9h-8.3a1.9 1.9 0 0 1-2-2v-14.6a1.9 1.9 0 0 1 2-2.1h11.8a53.2 53.2 0 0 1-2.3-15.4 48 48 0 0 1 96 0 49.9 49.9 0 0 1-2.2 15.4h11.7a1.9 1.9 0 0 1 2.1 2.1v14.6a1.9 1.9 0 0 1-2.1 2h-10.3l16.6 19.9a2.1 2.1 0 0 1 0 2.4l-4.6 6.7a2.3 2.3 0 0 1-2.7.6l-9.7-5h-96l-9.7 5a2.3 2.3 0 0 1-2.7-.6zm30.9-29H85l-17.9 21.1 2.9 4.1 34.3-18.1zm-24.8-14.6V149h111v-10.5zm14-4.1h83A49.1 49.1 0 0 0 173 119a43.9 43.9 0 0 0-87.8 0c0 5.3.4 10.8 2.4 15.4zm19.5 29l-19.3 10.2h27.6zm-3.5-10.3l17.1 20.5h14.6l17-20.5zm45.3 10.3l-8.3 10.2h27.6zm22.1-10.3h-13.4l-6.1 7.1 34.5 18.1 2.9-3.9z"/></symbol></svg>